<svg xmlns="http://www.w3.org/2000/svg" xmlns:xlink="http://www.w3.org/1999/xlink" fill="none" version="1.1" width="20" height="20" viewBox="0 0 20 20"><defs><clipPath id="master_svg0_3_320"><rect x="0" y="0" width="20" height="20" rx="0"/></clipPath></defs><g clip-path="url(#master_svg0_3_320)"><g transform="matrix(1,0,0,-1,0,38.359375)"><g><path d="M1.875,26.2109375L8.90625,19.6093755L1.875,26.2109375L8.90625,19.6093755Q9.375,19.1796875,10,19.1796875Q10.625,19.1796875,11.0938,19.6093755L18.125,26.2109375Q19.9609,27.9296875,20,30.468787499999998L20,30.703087500000002Q19.9609,32.8124875,18.6719,34.2968875Q17.3828,35.8202875,15.3516,36.2108875Q13.9844,36.406287500000005,12.6953,36.015587499999995Q11.4453,35.6249875,10.4688,34.6484875L10,34.1796875L9.53125,34.6484875Q8.55469,35.6249875,7.30469,36.015587499999995Q6.01562,36.406287500000005,4.64844,36.2108875Q2.61719,35.8202875,1.32812,34.2968875Q0.0390625,32.8124875,0,30.703087500000002L0,30.468787499999998Q0.0390625,27.9296875,1.875,26.2109375Z" fill="#4F46E5" fill-opacity="1" style="mix-blend-mode:passthrough"/></g></g></g></svg>